<svg width="66" height="37" viewBox="0 0 66 37" fill="none" xmlns="http://www.w3.org/2000/svg">
<path fill-rule="evenodd" clip-rule="evenodd" d="M0.998089 14.369C0.33397 13.698 0.333971 12.61 0.998089 11.9389L11.8205 1.0033C12.4846 0.332234 13.5614 0.332234 14.2255 1.0033C14.8896 1.67436 14.8896 2.76237 14.2255 3.43343L6.30615 11.4356L40.5 11.4356V14.8723L6.30615 14.8723L14.2255 22.8745C14.8896 23.5456 14.8896 24.6336 14.2255 25.3047C13.5614 25.9757 12.4846 25.9757 11.8205 25.3047L0.998089 14.369ZM54.1795 11.6954L65.0019 22.631C65.666 23.302 65.666 24.39 65.0019 25.0611L54.1795 35.9967C53.5154 36.6678 52.4386 36.6678 51.7745 35.9967C51.1104 35.3256 51.1104 34.2376 51.7745 33.5666L59.6939 25.5644H26.5V22.1277H59.6939L51.7745 14.1255C51.1104 13.4544 51.1104 12.3664 51.7745 11.6954C52.4386 11.0243 53.5154 11.0243 54.1795 11.6954Z" fill="#5961FF"/>
</svg>
