<svg width="58" height="58" viewBox="0 0 58 58" fill="none" xmlns="http://www.w3.org/2000/svg">
<path d="M54.4185 36.4545C51.4797 37.9917 36.228 44.265 32.9425 45.9868C29.6571 47.7087 27.8976 47.6597 25.328 46.4314C22.7584 45.2031 6.58364 38.6247 3.65236 37.2231C2.17542 36.5299 1.42188 35.9383 1.42188 35.3845V29.8045C1.42188 29.8045 22.5512 25.2192 25.961 23.9834C29.3707 22.7476 30.55 22.7174 33.4474 23.7799C36.3448 24.8424 53.7139 27.9772 56.5812 29.0171V34.5179C56.5812 35.0906 55.9218 35.6482 54.4185 36.4508V36.4545Z" fill="#5961FF"/>
<path d="M54.4183 30.9018C51.4795 32.4315 36.2278 38.7047 32.9424 40.3964C29.657 42.0881 27.8974 42.073 25.3279 40.8485C22.7583 39.624 6.58349 33.0456 3.65221 31.6553C0.720935 30.265 0.66442 29.293 3.53918 28.1702C6.41395 27.0474 22.551 20.7289 25.9608 19.4856C29.3706 18.2423 30.5499 18.2159 33.4473 19.2821C36.3446 20.3484 51.5323 26.3805 54.3844 27.4317C57.2366 28.4829 57.3685 29.3457 54.4183 30.8716V30.9018Z" fill="#A4A8FF"/>
<path d="M54.4185 27.3683C51.4797 28.9017 36.228 35.1712 32.9425 36.8629C29.6571 38.5546 27.9126 38.5395 25.3431 37.3075C22.7735 36.0755 6.58364 29.5347 3.65236 28.1369C2.17542 27.4361 1.42188 26.8483 1.42188 26.2907V20.7296C1.42188 20.7296 22.5512 16.1292 25.961 14.8934C29.3707 13.6576 30.55 13.6237 33.4474 14.7012C36.3448 15.7788 53.7139 18.8834 56.5812 19.9308V25.4317C56.5812 26.0044 55.9218 26.5771 54.4185 27.3683Z" fill="#5961FF"/>
<path d="M54.4189 21.7866C51.48 23.3238 36.2284 29.5933 32.9429 31.285C29.6575 32.9767 27.8979 32.9654 25.3284 31.7371C22.7588 30.5088 6.58401 23.9568 3.65273 22.5552C0.721456 21.1536 0.668708 20.2004 3.5397 19.0776C6.4107 17.9548 22.5516 11.6213 25.9613 10.4119C29.3711 9.20242 30.5504 9.12706 33.4478 10.1783C36.3452 11.2294 51.5328 17.3143 54.385 18.3353C57.2371 19.3564 57.369 20.2531 54.4189 21.7753V21.7866Z" fill="#A4A8FF"/>
<path d="M54.4185 17.9357C51.4797 19.4729 36.228 25.7461 32.9425 27.4341C29.6571 29.122 27.9126 29.1107 25.3431 27.8862C22.7735 26.6617 6.58364 20.1021 3.65236 18.7043C2.17542 18.011 1.42188 17.4195 1.42188 16.8619V11.2819C1.42188 11.2819 22.5512 6.6966 25.961 5.46456C29.3707 4.23252 30.55 4.19484 33.4474 5.25734C36.3448 6.31983 53.7064 9.45457 56.5736 10.502V16.0028C56.5812 16.5831 55.9218 17.1482 54.4185 17.9357Z" fill="#5961FF"/>
<path d="M54.4183 12.3642C51.4795 13.8713 36.2278 20.1822 32.9424 21.8589C29.657 23.5355 27.8974 23.5317 25.3279 22.311C22.7583 21.0903 6.58349 14.5231 3.65221 13.1291C0.720935 11.735 0.66442 10.7667 3.53918 9.64395C6.41395 8.52117 22.551 2.19142 25.9608 0.963147C29.3706 -0.265126 30.5499 -0.302803 33.4473 0.759691C36.3446 1.82219 51.5323 7.86182 54.3844 8.90925C57.2366 9.95667 57.3685 10.827 54.4183 12.3529V12.3642Z" fill="#A4A8FF"/>
<path d="M29.8675 4.4404L33.5071 3.24604L32.52 5.60462L36.2236 6.99114L31.45 7.48848L30.3762 10.0656L28.6506 7.19083L23.1309 6.69349L27.2527 5.20901L26.0132 2.92578L29.8675 4.4404Z" fill="white"/>
<path d="M30.0977 19.485L21.1758 15.7813L33.9559 13.8184L30.0977 19.485Z" fill="white"/>
<path d="M17.7292 8.42383C21.4969 8.42383 24.56 9.61066 24.56 11.0612C24.56 12.5118 21.4893 13.6986 17.7292 13.6986C13.969 13.6986 10.8945 12.5118 10.8945 11.0612C10.8945 9.61066 13.9577 8.42383 17.7292 8.42383Z" fill="white"/>
<path d="M41.8789 7.69531L49.4407 10.6831L41.8864 13.6709L41.8789 7.69531Z" fill="#1F258B"/>
<path d="M41.8797 7.69531L41.8872 13.6709L41.0658 13.9912L33.5078 11.0034L41.8797 7.69531Z" fill="#5961FF"/>
<rect x="0.917969" y="41.5" width="56" height="16" fill="#364253"/>
<path d="M7.73479 52V47.065H11.1158V47.912H8.77079V49.067H10.9618V49.921H8.77079V51.153H11.1158V52H7.73479ZM11.9731 52V47.065H12.7781L15.2421 50.208V47.065H16.2501V52H15.4521L12.9811 48.85V52H11.9731ZM18.4196 52V47.961H16.7886V47.065H21.1356V47.961H19.5046V52H18.4196ZM21.6664 52V47.065H25.0474V47.912H22.7024V49.067H24.8934V49.921H22.7024V51.153H25.0474V52H21.6664ZM25.9047 52V47.065H28.1587C28.7094 47.065 29.134 47.198 29.4327 47.464C29.7314 47.73 29.8807 48.101 29.8807 48.577C29.8807 48.9457 29.785 49.2537 29.5937 49.501C29.407 49.7437 29.1387 49.9093 28.7887 49.998C29.036 50.0727 29.239 50.2523 29.3977 50.537L30.1957 52H28.9987L28.1447 50.425C28.0747 50.299 27.9884 50.2127 27.8857 50.166C27.783 50.1147 27.6617 50.089 27.5217 50.089H26.9897V52H25.9047ZM26.9897 49.305H27.9627C28.546 49.305 28.8377 49.0717 28.8377 48.605C28.8377 48.143 28.546 47.912 27.9627 47.912H26.9897V49.305ZM30.7787 52V47.065H33.0327C33.5834 47.065 34.0081 47.205 34.3067 47.485C34.6054 47.7603 34.7547 48.1453 34.7547 48.64C34.7547 49.1347 34.6054 49.522 34.3067 49.802C34.0081 50.082 33.5834 50.222 33.0327 50.222H31.8637V52H30.7787ZM31.8637 49.382H32.8507C33.4247 49.382 33.7117 49.1347 33.7117 48.64C33.7117 48.1547 33.4247 47.912 32.8507 47.912H31.8637V49.382ZM35.4272 52V47.065H37.6812C38.2318 47.065 38.6565 47.198 38.9552 47.464C39.2538 47.73 39.4032 48.101 39.4032 48.577C39.4032 48.9457 39.3075 49.2537 39.1162 49.501C38.9295 49.7437 38.6612 49.9093 38.3112 49.998C38.5585 50.0727 38.7615 50.2523 38.9202 50.537L39.7182 52H38.5212L37.6672 50.425C37.5972 50.299 37.5108 50.2127 37.4082 50.166C37.3055 50.1147 37.1842 50.089 37.0442 50.089H36.5122V52H35.4272ZM36.5122 49.305H37.4852C38.0685 49.305 38.3602 49.0717 38.3602 48.605C38.3602 48.143 38.0685 47.912 37.4852 47.912H36.5122V49.305ZM40.3012 52V47.065H41.3862V52H40.3012ZM44.1365 52.077C43.7492 52.077 43.3828 52.028 43.0375 51.93C42.6968 51.832 42.4122 51.699 42.1835 51.531L42.4985 50.677C42.7178 50.831 42.9675 50.9523 43.2475 51.041C43.5322 51.1297 43.8285 51.174 44.1365 51.174C44.4725 51.174 44.7128 51.1227 44.8575 51.02C45.0068 50.9127 45.0815 50.7797 45.0815 50.621C45.0815 50.4857 45.0302 50.3783 44.9275 50.299C44.8248 50.2197 44.6452 50.152 44.3885 50.096L43.5975 49.928C42.7155 49.7413 42.2745 49.284 42.2745 48.556C42.2745 48.2433 42.3585 47.9703 42.5265 47.737C42.6945 47.499 42.9278 47.3147 43.2265 47.184C43.5298 47.0533 43.8798 46.988 44.2765 46.988C44.6172 46.988 44.9368 47.037 45.2355 47.135C45.5342 47.233 45.7815 47.3707 45.9775 47.548L45.6625 48.346C45.2798 48.0427 44.8155 47.891 44.2695 47.891C43.9755 47.891 43.7468 47.9493 43.5835 48.066C43.4248 48.178 43.3455 48.325 43.3455 48.507C43.3455 48.6423 43.3945 48.752 43.4925 48.836C43.5905 48.92 43.7608 48.9877 44.0035 49.039L44.7945 49.207C45.6998 49.403 46.1525 49.8463 46.1525 50.537C46.1525 50.845 46.0685 51.1157 45.9005 51.349C45.7372 51.5777 45.5038 51.7573 45.2005 51.888C44.9018 52.014 44.5472 52.077 44.1365 52.077ZM46.8569 52V47.065H50.2379V47.912H47.8929V49.067H50.0839V49.921H47.8929V51.153H50.2379V52H46.8569Z" fill="white"/>
<rect x="0.917969" y="41.5" width="56" height="16" stroke="white"/>
</svg>
