<svg width="56" height="45" viewBox="0 0 56 45" fill="none" xmlns="http://www.w3.org/2000/svg">
<path fill-rule="evenodd" clip-rule="evenodd" d="M43.1006 24.568C47.5846 22.739 51.9926 20.9454 53.4011 20.1803L54.4955 19.5824C54.8888 19.3774 55.2695 19.149 55.6355 18.8984C55.7218 19.4813 55.7218 20.0737 55.6355 20.6566C55.4785 21.2696 55.0666 22.8435 53.349 23.6694C52.1634 24.2419 48.8549 25.5998 45.1663 27.1198C39.9831 29.2529 34.0197 31.6798 32.1501 32.6931C28.9429 34.2131 27.1797 34.2131 24.7223 33.1035C23.5367 32.4702 19.2453 30.6209 14.8069 28.6854C10.0493 26.6131 5.12447 24.4649 3.6602 23.7049C1.66393 22.6611 1.52353 21.3608 1.53366 20.8339V19.4558L2.04033 19.7294C3.92006 20.6819 12.3865 24.2894 18.5019 26.924C21.5318 28.211 23.9638 29.2598 24.7745 29.6246C27.2318 30.7291 28.9747 30.9318 32.2022 29.2142C33.8387 28.363 38.5102 26.4427 43.1006 24.568Z" fill="#A4A8FF"/>
<path fill-rule="evenodd" clip-rule="evenodd" d="M41.9307 34.9313C46.4147 33.1023 50.8227 31.3087 52.2312 30.5436L53.3256 29.9457C53.7189 29.7407 54.0996 29.5123 54.4656 29.2617C54.5519 29.8446 54.5519 30.437 54.4656 31.0199C54.3085 31.6329 53.8967 33.2068 52.1791 34.0327C50.9935 34.6052 47.6849 35.9631 43.9964 37.4831C38.8132 39.6162 32.8497 42.0431 30.9802 43.0564C27.7729 44.5764 26.0097 44.5764 23.5524 43.4668C22.3668 42.8335 18.0753 40.9841 13.6369 39.0487C8.87935 36.9764 3.95454 34.8281 2.49028 34.0681C0.494011 33.0244 0.353608 31.7241 0.363741 31.1972V29.8191L0.870408 30.0927C2.75014 31.0452 11.2165 34.6527 17.332 37.2873C20.3619 38.5743 22.7939 39.6231 23.6045 39.9879C26.0619 41.0924 27.8048 41.2951 31.0323 39.5775C32.6688 38.7263 37.3403 36.806 41.9307 34.9313Z" fill="#A4A8FF"/>
<path fill-rule="evenodd" clip-rule="evenodd" d="M30.0251 1.19126C30.364 0.40244 31.2782 0.0377284 32.0671 0.376656L52.7311 9.25523C53.2969 9.49834 53.6659 10.0525 53.6719 10.6683C53.6779 11.2841 53.3199 11.8454 52.7589 12.0995L32.0949 21.461C31.3128 21.8153 30.3917 21.4686 30.0374 20.6865C29.6831 19.9045 30.0298 18.9833 30.8119 18.629L48.2672 10.7212L30.8397 3.23323C30.0509 2.8943 29.6862 1.98008 30.0251 1.19126Z" fill="#5961FF"/>
<path fill-rule="evenodd" clip-rule="evenodd" d="M25.9608 1.16343C26.3151 1.94547 25.9683 2.86665 25.1863 3.22094L7.73096 11.1288L25.1585 18.6167C25.9473 18.9557 26.312 19.8699 25.9731 20.6587C25.6341 21.4475 24.7199 21.8122 23.9311 21.4733L3.26704 12.5947C2.70123 12.3516 2.33227 11.7974 2.32625 11.1816C2.32022 10.5659 2.67827 10.0046 3.23922 9.75043L23.9033 0.388916C24.6853 0.0346245 25.6065 0.381385 25.9608 1.16343Z" fill="#5961FF"/>
</svg>
