<svg width="52" height="49" viewBox="0 0 52 49" fill="none" xmlns="http://www.w3.org/2000/svg">
<path d="M5.35808 18.6992L0.804688 20.4542L26.0014 31.7183V27.9777L5.35808 18.6992Z" fill="#A4A8FF"/>
<path d="M5.35808 28.9551L0.804688 30.71L26.0014 41.9794V38.2309L5.35808 28.9551Z" fill="#A4A8FF"/>
<path d="M0.804688 10.1969L26.0014 21.4663V6.53932L33.2454 3.29839L26.0014 0.513672L0.804688 10.1969Z" fill="#A4A8FF"/>
<path d="M26.0008 6.53976V21.4654L0.804053 10.196V16.6568L26.0008 27.9724V31.7117L0.804053 20.4568V26.9175L26.0008 38.2476V41.9869L0.804053 30.703V37.1638H0.679688L26.0008 48.4859L33.2448 45.245V3.29883L26.0008 6.53976Z" fill="#5961FF"/>
<path d="M35.0332 44.444L42.2772 41.2031V11.4941L35.0332 14.7351V44.444Z" fill="#5961FF"/>
<path d="M35.0332 14.7346L42.2772 11.4937L35.0332 8.70898V14.7346Z" fill="#A4A8FF"/>
<path d="M44.0742 40.4021L51.3209 37.1612V19.6895L44.0769 22.9304L44.0742 40.4021Z" fill="#5961FF"/>
<path d="M44.0742 22.9286L51.3209 19.6877L44.0742 16.9082V22.9286Z" fill="#A4A8FF"/>
</svg>
