<svg width="64" height="55" viewBox="0 0 64 55" fill="none" xmlns="http://www.w3.org/2000/svg">
<path d="M59.1568 40.3072C55.9251 41.9976 39.1536 48.896 35.5407 50.7895C31.9279 52.6829 29.993 52.629 27.1673 51.2784C24.3417 49.9277 6.55506 42.6937 3.33167 41.1524C1.70754 40.3901 0.878906 39.7396 0.878906 39.1306V32.9945C0.878906 32.9945 24.1138 27.9523 27.8634 26.5933C31.613 25.2344 32.9098 25.2012 36.0959 26.3696C39.282 27.538 58.382 30.9851 61.535 32.1286V38.1776C61.535 38.8074 60.8099 39.4206 59.1568 40.3031V40.3072Z" fill="#5961FF"/>
<path d="M59.157 34.1986C55.9254 35.8807 39.1538 42.7791 35.5409 44.6394C31.9281 46.4997 29.9932 46.4831 27.1676 45.1366C24.3419 43.79 6.55529 36.556 3.3319 35.0272C0.108505 33.4984 0.0463575 32.4294 3.2076 31.1948C6.36884 29.9601 24.1141 23.012 27.8636 21.6448C31.6132 20.2775 32.91 20.2485 36.0961 21.421C39.2822 22.5935 55.9834 29.2268 59.1197 30.3827C62.2561 31.5387 62.4011 32.4874 59.157 34.1654V34.1986Z" fill="#A4A8FF"/>
<path d="M59.1568 30.3132C55.9251 31.9994 39.1536 38.8937 35.5407 40.7539C31.9279 42.6142 30.0096 42.5977 27.1839 41.2428C24.3583 39.888 6.55506 32.6955 3.33167 31.1584C1.70754 30.3877 0.878906 29.7414 0.878906 29.1282V23.0129C0.878906 23.0129 24.1138 17.9541 27.8634 16.5951C31.613 15.2361 32.9098 15.1988 36.0959 16.3838C39.282 17.5687 58.382 20.9827 61.535 22.1345V28.1836C61.535 28.8133 60.8099 29.4431 59.1568 30.3132Z" fill="#5961FF"/>
<path d="M59.1574 24.1768C55.9257 25.8672 39.1542 32.7614 35.5413 34.6217C31.9285 36.482 29.9936 36.4696 27.168 35.1189C24.3423 33.7682 6.55566 26.5632 3.33227 25.022C0.108882 23.4807 0.0508781 22.4325 3.20798 21.1978C6.36508 19.9632 24.1144 12.9985 27.864 11.6685C31.6136 10.3386 32.9104 10.2557 36.0965 11.4116C39.2826 12.5676 55.9837 19.2588 59.1201 20.3816C62.2565 21.5044 62.4015 22.4905 59.1574 24.1643V24.1768Z" fill="#A4A8FF"/>
<path d="M59.1568 19.9428C55.9251 21.6332 39.1535 28.5316 35.5407 30.3877C31.9279 32.2438 30.0096 32.2314 27.1839 30.8849C24.3583 29.5383 6.55505 22.3251 3.33167 20.788C1.70754 20.0256 0.878906 19.3751 0.878906 18.762V12.6259C0.878906 12.6259 24.1138 7.58367 27.8634 6.22885C31.613 4.87403 32.9098 4.8326 36.0959 6.00097C39.282 7.16935 58.3737 10.6165 61.5267 11.7683V17.8173C61.535 18.4554 60.8099 19.0768 59.1568 19.9428Z" fill="#5961FF"/>
<path d="M59.157 13.8151C55.9254 15.4724 39.1538 22.4122 35.5409 24.2559C31.9281 26.0996 29.9932 26.0955 27.1676 24.7531C24.3419 23.4107 6.55529 16.1892 3.3319 14.6562C0.108505 13.1232 0.0463575 12.0584 3.2076 10.8238C6.36884 9.58909 24.1141 2.62855 27.8636 1.27788C31.6132 -0.0727968 32.91 -0.114229 36.0961 1.05415C39.2822 2.22252 55.9834 8.86403 59.1197 10.0158C62.2561 11.1676 62.4011 12.1247 59.157 13.8027V13.8151Z" fill="#A4A8FF"/>
<path d="M32.1599 5.10306L36.1623 3.78967L35.0767 6.3833L39.1495 7.90798L33.9001 8.45488L32.7193 11.2888L30.8217 8.12757L24.752 7.58067L29.2846 5.94826L27.9215 3.4375L32.1599 5.10306Z" fill="white"/>
<path d="M32.4126 21.6454L22.6016 17.5727L36.6552 15.4141L32.4126 21.6454Z" fill="white"/>
<path d="M18.8106 9.48242C22.9538 9.48242 26.3222 10.7875 26.3222 12.3826C26.3222 13.9778 22.9455 15.2829 18.8106 15.2829C14.6758 15.2829 11.2949 13.9778 11.2949 12.3826C11.2949 10.7875 14.6633 9.48242 18.8106 9.48242Z" fill="white"/>
<path d="M45.3691 8.68164L53.6845 11.9672L45.3774 15.2527L45.3691 8.68164Z" fill="#1F258B"/>
<path d="M45.3682 8.68164L45.3765 15.2527L44.4733 15.6049L36.1621 12.3193L45.3682 8.68164Z" fill="#5961FF"/>
<path fill-rule="evenodd" clip-rule="evenodd" d="M63.1249 32.6914C59.1047 35.1849 55.828 38.7635 53.7041 43.0182C52.9911 42.9348 52.2657 42.892 51.5303 42.892C45.8919 42.892 40.8418 45.4108 37.4439 49.3846C35.2403 47.8011 32.5375 46.8687 29.6169 46.8687C29.0839 46.8687 28.5581 46.8997 28.0413 46.9601C25.0071 40.882 18.727 36.7074 11.4718 36.7074C7.53042 36.7074 3.87679 37.9395 0.875 40.0394V54.78H63.1249V32.6914Z" fill="white"/>
</svg>
