<svg width="65" height="65" viewBox="0 0 65 65" fill="none" xmlns="http://www.w3.org/2000/svg">
<path d="M12.5471 29.4714C12.3518 29.6667 12.3518 29.9832 12.5471 30.1785L15.7291 33.3605C15.9243 33.5557 16.2409 33.5557 16.4362 33.3605C16.6314 33.1652 16.6314 32.8486 16.4362 32.6534L13.6077 29.825L16.4362 26.9965C16.6314 26.8013 16.6314 26.4847 16.4362 26.2894C16.2409 26.0942 15.9243 26.0942 15.7291 26.2894L12.5471 29.4714ZM12.9006 30.325L54.3049 30.3249L54.3049 29.3249L12.9006 29.325L12.9006 30.325Z" fill="#161F31"/>
<path d="M54.6585 42.8299C54.8538 42.6346 54.8538 42.318 54.6585 42.1228L51.4765 38.9408C51.2812 38.7455 50.9647 38.7455 50.7694 38.9408C50.5741 39.136 50.5741 39.4526 50.7694 39.6479L53.5978 42.4763L50.7694 45.3047C50.5741 45.5 50.5741 45.8166 50.7694 46.0118C50.9647 46.2071 51.2813 46.2071 51.4765 46.0118L54.6585 42.8299ZM12.9006 42.9763L54.3049 42.9763L54.3049 41.9763L12.9006 41.9763L12.9006 42.9763Z" fill="#161F31"/>
<path d="M59.3984 16.7974C59.6746 16.7974 59.8984 16.5735 59.8984 16.2974C59.8984 16.0212 59.6746 15.7974 59.3984 15.7974V16.7974ZM59.3984 15.7974H48.7188V16.7974H59.3984V15.7974ZM46.3708 13.4495V1.34583H45.3708V13.4495H46.3708ZM48.7188 15.7974C47.422 15.7974 46.3708 14.7462 46.3708 13.4495H45.3708C45.3708 15.2985 46.8698 16.7974 48.7188 16.7974V15.7974Z" fill="#161F31"/>
<path d="M60.1104 15.5854V61.152C60.1104 62.7249 58.8353 64 57.2625 64H8.84792C7.27506 64 6 62.7249 6 61.152V4.19374C6 2.62088 7.27506 1.34583 8.84792 1.34583H45.8708" stroke="#161F31" stroke-linecap="round"/>
<path d="M45.8708 1.34583L60.1104 15.5854" stroke="#161F31" stroke-linecap="round"/>
</svg>
