<svg width="64" height="65" viewBox="0 0 64 65" fill="none" xmlns="http://www.w3.org/2000/svg">
<g clip-path="url(#clip0_33_445)">
<path d="M31.8005 1.45271C31.2282 1.48633 30.6684 1.6346 30.1545 1.88871L7.86452 12.5207C6.70052 13.0747 5.85452 14.1287 5.56452 15.3847L0.108516 39.2467C-0.151484 40.3667 0.0585157 41.5407 0.708516 42.5007C0.784516 42.6167 0.864516 42.7287 0.948516 42.8367L16.3485 61.9847C17.1625 62.9847 18.3845 63.5587 19.6725 63.5527H44.3725C45.6645 63.5547 46.8885 62.9527 47.7005 61.9667L63.0925 42.8147C63.9005 41.8147 64.2025 40.4947 63.8925 39.2427L58.4005 15.3607C58.1105 14.1047 57.2605 13.0507 56.1005 12.4967L33.8465 1.89071C33.2052 1.57443 32.495 1.42384 31.7805 1.45271H31.8005Z" fill="#5961FF"/>
<path d="M32.0046 9.58398C31.2366 9.63798 30.6546 10.296 30.6946 11.064V11.44C30.7306 11.866 30.7946 12.288 30.8786 12.706C31.0013 13.5064 31.0455 14.3169 31.0106 15.126C30.9346 15.392 30.7826 15.632 30.5746 15.816L30.5446 16.38C29.7346 16.448 28.9306 16.572 28.1386 16.752C24.8066 17.504 21.7726 19.232 19.4306 21.722L18.9506 21.382C18.6866 21.462 18.4026 21.432 18.1606 21.302C17.5115 20.8215 16.9106 20.2789 16.3666 19.682C16.0934 19.3555 15.8016 19.045 15.4926 18.752L15.1966 18.516C14.9326 18.304 14.6086 18.182 14.2706 18.166C14.0689 18.1553 13.8675 18.1925 13.683 18.2745C13.4984 18.3565 13.3358 18.4811 13.2086 18.638C12.7566 19.272 12.9046 20.15 13.5366 20.604L13.8126 20.824C14.1679 21.0604 14.5365 21.2761 14.9166 21.47C15.6246 21.864 16.2926 22.326 16.9126 22.87C17.0712 23.0961 17.1634 23.3622 17.1786 23.638L17.6146 24.038C15.2606 27.57 14.2946 31.848 14.8986 36.05L14.3386 36.21C14.1926 36.442 13.9986 36.64 13.7666 36.786C12.9853 36.9946 12.1855 37.1266 11.3786 37.18C10.9504 37.1887 10.523 37.2221 10.0986 37.28L9.74463 37.36H9.70463C9.45896 37.3941 9.22758 37.4957 9.03624 37.6535C8.8449 37.8113 8.70111 38.0191 8.62088 38.2538C8.54065 38.4885 8.52712 38.7408 8.58181 38.9827C8.6365 39.2246 8.75725 39.4466 8.93063 39.624C9.10562 39.8004 9.32624 39.9247 9.56782 39.983C9.8094 40.0413 10.0624 40.0312 10.2986 39.954H10.3246L10.6846 39.914C11.0906 39.794 11.4906 39.646 11.8806 39.478C12.6306 39.178 13.4086 38.948 14.2046 38.798C14.4806 38.814 14.7446 38.908 14.9686 39.068L15.5686 38.968C16.8686 43.002 19.6006 46.42 23.2486 48.574L23.0046 49.084C23.1166 49.318 23.1586 49.578 23.1246 49.836C22.7946 50.6 22.3906 51.332 21.9186 52.02C21.6597 52.3613 21.4206 52.7172 21.2026 53.086L21.0326 53.446C20.9093 53.6599 20.8475 53.9038 20.854 54.1507C20.8605 54.3976 20.9352 54.6379 21.0697 54.845C21.2042 55.0521 21.3933 55.2181 21.6162 55.3245C21.8391 55.4309 22.087 55.4736 22.3326 55.448C22.5788 55.4203 22.8125 55.3249 23.0078 55.1724C23.203 55.0198 23.3522 54.8162 23.4386 54.584L23.6046 54.244C23.7566 53.844 23.8846 53.436 23.9886 53.024C24.3426 52.15 24.5346 51.212 25.0186 50.632C25.1768 50.4833 25.3762 50.3857 25.5906 50.352L25.8906 49.806C29.8451 51.326 34.2208 51.3366 38.1826 49.836L38.4486 50.346C38.7206 50.386 38.9646 50.536 39.1286 50.756C39.5046 51.472 39.8086 52.222 40.0406 52.996C40.1464 53.4104 40.2759 53.8184 40.4286 54.218L40.5946 54.558C40.6819 54.7893 40.8315 54.9919 41.0268 55.1435C41.2221 55.295 41.4556 55.3896 41.7013 55.4167C41.947 55.4438 42.1955 55.4025 42.4192 55.2971C42.6428 55.1918 42.833 55.0267 42.9686 54.82C43.1029 54.6121 43.177 54.371 43.1827 54.1235C43.1883 53.876 43.1253 53.6318 43.0006 53.418L42.8266 53.058C42.6086 52.6905 42.3695 52.3359 42.1106 51.996C41.6506 51.332 41.2546 50.624 40.9106 49.882C40.8785 49.7463 40.874 49.6056 40.8974 49.4682C40.9207 49.3307 40.9715 49.1994 41.0466 49.082C40.9613 48.9075 40.8871 48.7278 40.8246 48.544C44.4646 46.374 47.1846 42.944 48.4706 38.904L49.0386 39.004C49.2426 38.818 49.5106 38.72 49.7846 38.728C50.5786 38.88 51.3566 39.128 52.1086 39.408C52.4986 39.588 52.8986 39.74 53.3046 39.868C53.4006 39.894 53.5406 39.916 53.6486 39.942H53.6746C53.9107 40.0182 54.1633 40.0274 54.4043 39.9686C54.6452 39.9098 54.8652 39.7852 55.0395 39.6087C55.2139 39.4323 55.3359 39.2109 55.3919 38.9693C55.4478 38.7276 55.4356 38.4751 55.3566 38.24C55.2758 38.0051 55.1312 37.7972 54.9391 37.6397C54.747 37.4822 54.5148 37.3812 54.2686 37.348L53.8806 37.256C53.4562 37.1981 53.0289 37.1647 52.6006 37.156C51.7926 37.104 50.9926 36.972 50.2126 36.762C49.9726 36.628 49.7726 36.428 49.6366 36.186L49.0966 36.026C49.6724 31.826 48.686 27.5607 46.3246 24.04L46.7966 23.604C46.7766 23.33 46.8666 23.058 47.0446 22.848C47.6586 22.32 48.3246 21.854 49.0246 21.456C49.4047 21.262 49.7733 21.0463 50.1286 20.81L50.4206 20.574C50.6356 20.4405 50.8084 20.249 50.9191 20.0214C51.0297 19.7938 51.0737 19.5396 51.0458 19.2881C51.018 19.0366 50.9195 18.7981 50.7618 18.6002C50.6041 18.4024 50.3936 18.2532 50.1546 18.17C49.9159 18.0869 49.6584 18.073 49.4121 18.13C49.1658 18.187 48.9406 18.3125 48.7626 18.492L48.4666 18.728C48.1578 19.021 47.8659 19.3315 47.5926 19.658C47.0646 20.262 46.4806 20.812 45.8466 21.304C45.5908 21.4081 45.3109 21.4386 45.0386 21.392L44.5326 21.752C41.6126 18.692 37.6786 16.792 33.4626 16.412C33.4626 16.212 33.4366 15.912 33.4326 15.818C33.2066 15.662 33.0486 15.424 32.9966 15.154C32.9689 14.3463 33.0198 13.5378 33.1486 12.74C33.2346 12.32 33.2946 11.9 33.3326 11.474V11.074C33.3726 10.306 32.7926 9.64798 32.0226 9.59398L32.0046 9.58398ZM30.3366 19.916L29.9366 26.902H29.9066C29.8866 27.334 29.6326 27.702 29.2426 27.91C28.8526 28.118 28.3906 28.056 28.0426 27.802L22.3126 23.742C24.1364 21.9506 26.4244 20.7045 28.9186 20.144C29.3866 20.044 29.8586 19.968 30.3326 19.916H30.3366ZM33.6726 19.916C36.6826 20.29 39.4846 21.642 41.6526 23.764L35.9766 27.798C35.6266 28.078 35.1466 28.134 34.7406 27.942C34.3346 27.75 34.0746 27.342 34.0686 26.894L33.6726 19.916ZM20.2326 26.37L25.4726 31.046V31.076C25.7986 31.36 25.9406 31.802 25.8446 32.224C25.7486 32.646 25.4246 32.98 25.0106 33.094V33.114L18.2866 35.048C17.9539 32.0186 18.6393 28.9647 20.2346 26.368L20.2326 26.37ZM43.7386 26.37C45.3306 28.96 46.0346 31.998 45.7426 35.024L39.0086 33.084V33.058C38.5886 32.944 38.2686 32.61 38.1746 32.188C38.0806 31.766 38.2206 31.328 38.5466 31.04L43.7466 26.386L43.7386 26.37ZM30.9306 31.41H33.0746L34.3846 33.074L33.9086 35.154L31.9826 36.08L30.0526 35.154L29.5986 33.074L30.9306 31.41ZM37.7986 37.086C37.8886 37.076 37.9986 37.076 38.0686 37.086L45.0026 38.256C44.0026 41.136 42.0286 43.596 39.4526 45.242L36.7726 38.754C36.6989 38.5799 36.6681 38.3907 36.6828 38.2023C36.6975 38.0138 36.7573 37.8317 36.8571 37.6711C36.9568 37.5106 37.0937 37.3764 37.2562 37.2798C37.4186 37.1831 37.6019 37.127 37.7906 37.116L37.7986 37.086ZM26.1526 37.116C26.5446 37.122 26.9066 37.324 27.1206 37.652C27.3346 37.98 27.3686 38.392 27.2146 38.752V38.778L24.5506 45.214C22.0006 43.58 20.0646 41.15 19.0346 38.3L25.9086 37.134C25.9846 37.126 26.0626 37.126 26.1406 37.134L26.1526 37.116ZM31.9606 39.916C32.1791 39.9091 32.3953 39.963 32.5849 40.0718C32.7745 40.1806 32.9302 40.3399 33.0346 40.532H33.0606L36.4486 46.646L35.0946 47.046C32.6026 47.616 30.0006 47.482 27.5786 46.658L30.9786 40.544C31.1846 40.184 31.5646 39.964 31.9786 39.954L31.9606 39.916Z" fill="white" stroke="white" stroke-width="0.11"/>
</g>
<defs>
<clipPath id="clip0_33_445">
<rect width="64" height="64" fill="white" transform="translate(0 0.5)"/>
</clipPath>
</defs>
</svg>
