<svg width="66" height="65" viewBox="0 0 66 65" fill="none" xmlns="http://www.w3.org/2000/svg">
<g clip-path="url(#clip0_11_825)">
<path d="M0.987549 13.7883L36.4093 29.0383V8.49702L43.8494 4.7076L35.5082 0.0863854C35.3972 0.0296092 35.2744 0 35.15 0C35.0254 0 34.9026 0.0296092 34.7919 0.0863854L0.987549 13.7883Z" fill="#DD392B"/>
<path d="M1.03369 28.0449L36.4784 43.4798V22.9385L41.3077 18.7562L35.8314 13.9039L1.03369 28.0449Z" fill="#DD392B"/>
<path d="M0.918457 43.2027L36.3632 58.6376V38.0963L40.7303 32.8745L35.6932 29.0618L0.918457 43.2027Z" fill="#DD392B"/>
<path d="M35.6237 55.7952V50.7579C35.6248 50.5976 35.5797 50.4403 35.4937 50.3051C35.4074 50.1699 35.2842 50.0624 35.1383 49.9954L0.987527 34.8379C0.839927 34.7735 0.714899 34.6665 0.628453 34.5306C0.542008 34.3948 0.49808 34.2364 0.502298 34.0754V28.8304C0.502929 28.6934 0.537361 28.5587 0.602536 28.4382C0.667711 28.3177 0.761613 28.2152 0.875907 28.1398C0.990201 28.0644 1.12135 28.0183 1.25772 28.0057C1.39408 27.9932 1.53144 28.0146 1.6576 28.0677L34.4684 42.3705C34.5945 42.4238 34.7319 42.445 34.8682 42.4325C35.0047 42.4199 35.1357 42.3738 35.2499 42.2984C35.3643 42.223 35.4581 42.1205 35.5234 42C35.5886 41.8795 35.623 41.745 35.6237 41.6081V36.8943C35.6293 36.73 35.5834 36.568 35.4922 36.4312C35.4009 36.2945 35.2692 36.1897 35.1154 36.1318L1.01063 21.1359C0.856773 21.078 0.724962 20.9733 0.633767 20.8365C0.542572 20.6997 0.49659 20.5377 0.502298 20.3734V14.4814C0.513652 14.3504 0.555891 14.224 0.625551 14.1125C0.69521 14.001 0.790306 13.9076 0.903042 13.8399C1.01578 13.7723 1.14294 13.7323 1.2741 13.7233C1.40526 13.7143 1.53669 13.7366 1.6576 13.7882L34.7919 28.2064C34.918 28.2597 35.0554 28.2809 35.1916 28.2683C35.3281 28.2558 35.4592 28.2098 35.5734 28.1342C35.6878 28.0588 35.7816 27.9563 35.8468 27.8359C35.9121 27.7156 35.9465 27.5808 35.9472 27.4439V8.61241C35.9482 8.45846 35.992 8.30786 36.0735 8.17732C36.1552 8.04678 36.2713 7.94143 36.4093 7.87301L43.0176 4.66125C43.144 4.59855 43.2841 4.56902 43.4252 4.57545C43.566 4.58186 43.7032 4.62403 43.8232 4.69798C43.9435 4.77192 44.0427 4.87521 44.112 4.99812C44.1814 5.12106 44.2182 5.25958 44.2191 5.40065V60.6013C44.2165 60.7668 44.1645 60.9278 44.0698 61.0636C43.9751 61.1995 43.8421 61.3039 43.6876 61.3637L36.132 64.4367C35.9296 64.5054 35.7103 64.5054 35.508 64.4367L1.03374 50.5731C0.866105 50.5053 0.724346 50.3859 0.628851 50.2323C0.533356 50.0786 0.489047 49.8986 0.502298 49.7181V43.8261C0.504662 43.6891 0.539873 43.5548 0.604969 43.4346C0.670064 43.3141 0.763138 43.211 0.876364 43.134C0.989587 43.0569 1.11965 43.0084 1.2556 42.9921C1.39155 42.9759 1.52942 42.9923 1.6576 43.0404L34.4684 56.4651C34.5876 56.5165 34.7171 56.5392 34.8467 56.5314C34.9763 56.5238 35.1022 56.4857 35.2144 56.4207C35.3266 56.3555 35.4222 56.2651 35.4932 56.1564C35.5643 56.0478 35.6089 55.9241 35.6237 55.7952Z" fill="#A42523"/>
<path d="M45.7209 59.1682V20.9738L53.4845 17.6696C53.6108 17.6163 53.7482 17.5951 53.8845 17.6076C54.0207 17.6202 54.152 17.6663 54.2662 17.7417C54.3806 17.8171 54.4744 17.9196 54.5397 18.0401C54.6049 18.1605 54.6393 18.2952 54.64 18.4321L54.8478 56.488C54.8517 56.6609 54.7999 56.8308 54.7 56.972C54.6001 57.1135 54.4575 57.2193 54.2933 57.2734L46.83 60C46.7007 60.0461 46.562 60.0593 46.4264 60.0387C46.2905 60.0179 46.162 59.9642 46.0522 59.8817C45.9425 59.7993 45.8548 59.6912 45.7969 59.5666C45.7391 59.442 45.7129 59.3053 45.7209 59.1682Z" fill="#A42523"/>
<path d="M45.7207 20.9746V14.759C45.7214 14.6221 45.7558 14.4874 45.821 14.367C45.8862 14.2465 45.9801 14.144 46.0945 14.0686C46.2086 13.9932 46.3399 13.9471 46.4762 13.9345C46.6125 13.922 46.7499 13.9433 46.8762 13.9965L54.2008 17.6935L45.7207 20.9746Z" fill="#DD392B"/>
<path d="M56.373 55.5408V31.5798L64.1366 28.2525C64.2627 28.1992 64.4001 28.178 64.5366 28.1905C64.6729 28.2031 64.804 28.2492 64.9184 28.3246C65.0326 28.4 65.1266 28.5025 65.1918 28.623C65.2568 28.7435 65.2913 28.878 65.2919 29.0149L65.4999 52.8836C65.5038 53.0567 65.452 53.2264 65.3521 53.3678C65.2523 53.5091 65.1097 53.6148 64.9455 53.6692L57.4822 56.3264C57.3565 56.3708 57.2222 56.3845 57.0902 56.3661C56.9583 56.3477 56.8328 56.298 56.724 56.2209C56.6153 56.144 56.5267 56.0419 56.4656 55.9236C56.4045 55.8053 56.3728 55.674 56.373 55.5408Z" fill="#A42523"/>
<path d="M56.3729 31.5796V25.3409C56.3692 25.2048 56.3999 25.07 56.4623 24.9491C56.5247 24.828 56.6166 24.7249 56.7295 24.6488C56.8424 24.5728 56.9728 24.5264 57.1082 24.5141C57.2439 24.5017 57.3804 24.524 57.5052 24.5784L64.8528 28.2754L56.3729 31.5796Z" fill="#DD392B"/>
</g>
<defs>
<clipPath id="clip0_11_825">
<rect width="65" height="65" fill="white" transform="translate(0.5)"/>
</clipPath>
</defs>
</svg>
