<svg width="149" height="26" viewBox="0 0 149 26" fill="none" xmlns="http://www.w3.org/2000/svg">
<path d="M3.06994 7.86668C3.54998 7.34292 4.13999 6.9319 4.79764 6.66311C5.4384 6.38837 6.1252 6.2369 6.82208 6.21663C7.07135 6.19397 7.32263 6.22183 7.56089 6.29855C7.79914 6.37526 8.01947 6.49926 8.20868 6.66311C8.34895 6.79878 8.45899 6.96252 8.53163 7.14364C8.60427 7.32476 8.63786 7.51916 8.63021 7.71415C8.63299 8.10623 8.4816 8.48369 8.20868 8.7652C8.07689 8.91243 7.91458 9.02915 7.73305 9.10722C7.55153 9.18529 7.35516 9.22284 7.15764 9.21723C5.42716 9.36976 3.02557 11.0947 3.02557 13.438V18.757C3.01436 19.1519 2.85232 19.5274 2.57275 19.8065C2.29319 20.0855 1.91735 20.2469 1.52249 20.2574C1.32046 20.2645 1.11938 20.2266 0.933768 20.1465C0.74816 20.0664 0.582671 19.9461 0.449262 19.7942C0.308724 19.6573 0.196669 19.494 0.119563 19.3136C0.0424566 19.1332 0.00182111 18.9394 0 18.7432V7.65037C0.00166855 7.45418 0.0422361 7.26026 0.119351 7.07985C0.196467 6.89944 0.308601 6.73611 0.449262 6.59933C0.778412 6.36181 1.17213 6.23025 1.57795 6.22217C1.97294 6.22995 2.34964 6.39014 2.62925 6.66924C2.90886 6.94833 3.06974 7.32473 3.07826 7.7197L3.06994 7.86668Z" fill="#4E545B"/>
<path d="M21.2922 12.7476C21.2939 13.11 21.1604 13.4601 20.9178 13.7293C20.63 13.9963 20.2585 14.1551 19.8667 14.1786H10.9925C11.0763 14.8834 11.4193 15.5318 11.9548 15.9978C12.6408 16.7355 13.5794 17.1879 14.5838 17.2651C15.0924 17.3516 15.6131 17.3362 16.1158 17.2201C16.6185 17.1039 17.0931 16.8893 17.5123 16.5885C17.6596 16.44 17.8357 16.3233 18.0298 16.2456C18.224 16.1678 18.4319 16.1307 18.641 16.1364C18.8206 16.128 18.9999 16.1572 19.1676 16.2221C19.3352 16.2871 19.4874 16.3864 19.6144 16.5136C19.7329 16.6224 19.8289 16.7535 19.8967 16.8994C19.9645 17.0453 20.0028 17.2031 20.0095 17.3639C20.0162 17.5246 19.9911 17.6851 19.9357 17.8362C19.8803 17.9872 19.7956 18.1258 19.6865 18.2441C19.6643 18.269 19.6393 18.2912 19.6144 18.3162C18.9596 18.9224 18.1917 19.3936 17.3547 19.7029C16.5177 20.0122 15.628 20.1535 14.7363 20.1188C13.8209 20.1387 12.9118 19.9612 12.0711 19.5985C11.2303 19.2358 10.4775 18.6963 9.8638 18.0167C8.59194 16.6734 7.86964 14.9023 7.83936 13.0526C7.82014 12.1317 7.98986 11.2166 8.33805 10.3637C8.68624 9.51091 9.2055 8.7385 9.8638 8.09415C10.4638 7.44046 11.1959 6.9217 12.0115 6.57222C12.8271 6.22274 13.7077 6.05051 14.5949 6.06694C15.4577 6.03401 16.3176 6.18458 17.1179 6.50871C17.9182 6.83283 18.6405 7.32312 19.2372 7.94717C20.5101 9.16667 21.2656 10.8287 21.3476 12.5895V12.7365L21.2922 12.7476ZM14.6087 8.76804C13.6754 8.78395 12.7781 9.13089 12.0768 9.74698C11.4794 10.2492 11.0586 10.9295 10.876 11.6882H18.7602C18.5392 10.9258 18.061 10.2633 17.4069 9.81354C16.6174 9.1771 15.6465 8.8072 14.6337 8.75695" fill="#4E545B"/>
<path d="M35.422 18.6043C35.4115 18.9991 35.2502 19.375 34.9711 19.6545C34.6921 19.9341 34.3165 20.0961 33.9217 20.1073C33.5755 20.0935 33.2427 19.9692 32.9723 19.7527C32.7018 19.5361 32.5078 19.2386 32.4186 18.9038C31.3012 19.7038 29.9574 20.1255 28.5833 20.1073C27.6859 20.1174 26.7961 19.9427 25.9693 19.5939C25.1425 19.2451 24.3963 18.7298 23.7773 18.0801C23.1292 17.4316 22.6213 16.6568 22.285 15.8038C21.9487 14.9509 21.7912 14.038 21.8222 13.1216C21.8102 11.2794 22.5107 9.50379 23.7773 8.16592C24.392 7.50481 25.1354 6.97651 25.962 6.61356C26.7885 6.25062 27.6806 6.0607 28.5833 6.05552C29.9316 6.03767 31.249 6.46024 32.3354 7.25909V2.00941C32.3302 1.81194 32.3679 1.61569 32.4459 1.43422C32.524 1.25275 32.6405 1.0904 32.7874 0.95837C32.9258 0.815796 33.0913 0.702352 33.2742 0.62472C33.4571 0.547088 33.6537 0.506837 33.8524 0.506338C34.0498 0.501107 34.2461 0.538819 34.4275 0.616865C34.609 0.69491 34.7714 0.81143 34.9034 0.95837C35.0444 1.09502 35.157 1.25826 35.2346 1.43866C35.3122 1.61906 35.3532 1.81305 35.3554 2.00941V18.6043H35.422ZM28.6692 17.1012C29.1688 17.1115 29.6644 17.0091 30.119 16.8017C30.5736 16.5943 30.9757 16.2872 31.2955 15.9032C32.0139 15.1587 32.4154 14.1645 32.4154 13.13C32.4154 12.0954 32.0139 11.1012 31.2955 10.3568C30.9653 9.98388 30.5616 9.68344 30.1096 9.47439C29.6575 9.26533 29.1671 9.15219 28.6692 9.14209C28.1676 9.12472 27.6689 9.22445 27.2126 9.43336C26.7562 9.64227 26.3548 9.95463 26.0402 10.3457C25.3218 11.0901 24.9203 12.0843 24.9203 13.1189C24.9203 14.1534 25.3218 15.1476 26.0402 15.8921C26.3664 16.2692 26.7701 16.5715 27.2239 16.7783C27.6776 16.985 28.1706 17.0914 28.6692 17.0901" fill="#4E545B"/>
<path d="M39.8629 2.00879V2.61335C39.8695 2.82554 39.8317 3.03676 39.7519 3.2335C39.6722 3.43025 39.5522 3.60818 39.3998 3.75591C39.2639 3.89319 39.0989 3.99813 38.9169 4.06294C38.735 4.12775 38.5408 4.15077 38.3487 4.13029C38.152 4.13693 37.9562 4.1004 37.7751 4.02327C37.594 3.94613 37.432 3.83026 37.3005 3.6838C37.1513 3.53764 37.0341 3.3621 36.9563 3.16829C36.8785 2.97448 36.8417 2.76662 36.8484 2.55788V2.00324C36.8494 1.80668 36.8899 1.61232 36.9675 1.43174C37.0452 1.25117 37.1584 1.08808 37.3005 0.952199C37.4365 0.81112 37.5992 0.698503 37.7792 0.6209C37.9592 0.543296 38.1528 0.502256 38.3487 0.500167C38.5464 0.497097 38.7425 0.536338 38.9238 0.615258C39.105 0.694177 39.2673 0.810951 39.3998 0.957746C39.5485 1.08876 39.6668 1.25073 39.7463 1.43229C39.8259 1.61386 39.8647 1.81062 39.8601 2.00879H39.8629ZM37.3282 6.59289C37.4641 6.45086 37.6272 6.33763 37.8077 6.25997C37.9883 6.18231 38.1827 6.1418 38.3792 6.14086C38.5769 6.13431 38.7736 6.17142 38.9552 6.24955C39.1369 6.32768 39.2991 6.44491 39.4303 6.59289C39.5729 6.73938 39.6844 6.91312 39.7583 7.10372C39.8321 7.29433 39.8668 7.49787 39.8601 7.70217V18.6868C39.8719 18.8859 39.8364 19.085 39.7563 19.2677C39.6763 19.4504 39.5541 19.6115 39.3998 19.7379C39.2637 19.879 39.101 19.9916 38.921 20.0692C38.7411 20.1468 38.5475 20.1878 38.3515 20.1899C38.154 20.1955 37.9576 20.158 37.7761 20.0799C37.5946 20.0018 37.4323 19.8851 37.3005 19.7379C37.1584 19.602 37.0452 19.4389 36.9675 19.2583C36.8899 19.0778 36.8494 18.8834 36.8484 18.6868V7.71327C36.8432 7.50719 36.8807 7.30226 36.9585 7.11137C37.0363 6.92047 37.1527 6.74772 37.3005 6.60399" fill="#4E545B"/>
<path d="M50.5132 7.64409C50.8209 7.85603 51.0362 8.1774 51.115 8.54261C51.1756 8.92449 51.1236 9.31576 50.9653 9.66853C50.75 9.97357 50.4286 10.1872 50.064 10.2675C49.6729 10.3397 49.269 10.2593 48.9353 10.0429C47.8843 9.36902 47.0634 8.99464 46.3839 8.99464C45.7838 8.95599 45.1908 9.14182 44.72 9.516C44.4205 9.7434 44.2708 9.89316 44.2708 10.0429C44.25 10.1735 44.2765 10.3073 44.3456 10.4201C44.431 10.5125 44.5325 10.5886 44.6452 10.6447C45.2576 11.0296 45.9541 11.2608 46.6751 11.3186C47.609 11.4725 48.5176 11.7524 49.3762 12.1505C50.1334 12.4668 50.7664 13.0219 51.1788 13.7313C51.4467 14.1446 51.6301 14.6069 51.7185 15.0914C51.8069 15.5759 51.7985 16.0732 51.6938 16.5545C51.5892 17.0358 51.3903 17.4916 51.1087 17.8957C50.827 18.2997 50.4682 18.6441 50.0529 18.9088C49.0023 19.6597 47.7389 20.0543 46.4477 20.0348C44.72 20.0348 43.07 19.3609 41.492 18.0935C41.205 17.8407 41.0181 17.4934 40.9651 17.1146C40.9391 16.8336 40.9962 16.5512 41.1291 16.3024C41.2621 16.0535 41.4651 15.8491 41.7131 15.7145C41.961 15.5799 42.243 15.521 42.5241 15.5451C42.8053 15.5691 43.0731 15.6752 43.2946 15.85C44.1235 16.6384 45.229 17.0696 46.3728 17.0508C47.0381 17.0734 47.694 16.8894 48.2503 16.5239C48.5498 16.2244 48.7772 15.9997 48.7772 15.7723C48.7772 15.5449 48.7772 15.4728 48.7023 15.398C48.7023 15.3203 48.5498 15.1733 48.3252 15.0985C47.6396 14.6746 46.8705 14.404 46.0706 14.3053C45.1786 14.1768 44.3155 13.8953 43.5192 13.4734C42.79 13.1177 42.1681 12.5751 41.7166 11.901C41.4209 11.3734 41.2671 10.7781 41.2702 10.1733C41.269 9.5633 41.4191 8.96258 41.7071 8.42488C41.995 7.88719 42.4119 7.4293 42.9202 7.09222C43.9374 6.39883 45.1419 6.03217 46.3728 6.04118C47.6374 6.11883 49.0019 6.64019 50.5022 7.61913" fill="#4E545B"/>
<path d="M66.7901 20.7589C66.5804 20.7589 66.403 20.6702 66.2578 20.4928L59.3869 11.8558L60.524 10.7187L67.4433 19.4767C67.5562 19.638 67.6127 19.8073 67.6127 19.9848C67.6127 20.2428 67.5159 20.4364 67.3223 20.5654C67.1449 20.6944 66.9675 20.7589 66.7901 20.7589ZM66.524 3.77514C66.7175 3.77514 66.8788 3.84772 67.0078 3.99288C67.153 4.13804 67.2256 4.29933 67.2256 4.47675C67.2256 4.67029 67.153 4.83965 67.0078 4.98481L56.024 15.267L55.8305 13.6219L65.9917 4.01707C66.153 3.85578 66.3304 3.77514 66.524 3.77514ZM55.4434 20.6622C55.2176 20.6622 55.0321 20.5896 54.8869 20.4444C54.7579 20.2993 54.6934 20.1218 54.6934 19.9122V4.47675C54.6934 4.26707 54.7659 4.08965 54.9111 3.94449C55.0563 3.79933 55.2417 3.72675 55.4676 3.72675C55.6772 3.72675 55.8546 3.79933 55.9998 3.94449C56.145 4.08965 56.2175 4.26707 56.2175 4.47675V19.9122C56.2014 20.1218 56.1208 20.2993 55.9756 20.4444C55.8305 20.5896 55.653 20.6622 55.4434 20.6622Z" fill="#9A9A9A"/>
<path d="M75.7252 20.9041C74.4833 20.9041 73.3865 20.638 72.4349 20.1057C71.4833 19.5735 70.7414 18.8315 70.2091 17.8799C69.6769 16.9283 69.4107 15.8154 69.4107 14.5412C69.4107 13.1703 69.6769 12.0009 70.2091 11.0332C70.7575 10.0654 71.4591 9.3235 72.3139 8.80737C73.1849 8.27512 74.1043 8.00899 75.072 8.00899C75.7817 8.00899 76.4672 8.13802 77.1284 8.39609C77.8059 8.63802 78.4026 9.00899 78.9188 9.50898C79.451 9.99285 79.8704 10.5896 80.1768 11.2993C80.4994 12.009 80.6768 12.8316 80.7091 13.767C80.6929 13.9606 80.6123 14.1299 80.4671 14.2751C80.322 14.4041 80.1526 14.4686 79.9591 14.4686H70.2575L69.9672 13.1622H79.4994L79.1849 13.4525V12.9686C79.1204 12.2106 78.8784 11.5654 78.4591 11.0332C78.0397 10.5009 77.5317 10.0977 76.9349 9.8235C76.3381 9.54931 75.7172 9.41221 75.072 9.41221C74.5881 9.41221 74.0881 9.50898 73.572 9.70253C73.072 9.89608 72.6123 10.2025 72.193 10.6219C71.7898 11.0251 71.4591 11.5493 71.201 12.1945C70.943 12.8235 70.814 13.5735 70.814 14.4445C70.814 15.3961 71.0075 16.259 71.3946 17.0332C71.7817 17.8073 72.3381 18.4202 73.0639 18.8719C73.8059 19.3235 74.6849 19.5493 75.701 19.5493C76.2655 19.5493 76.7736 19.4686 77.2252 19.3073C77.6768 19.146 78.072 18.9364 78.4107 18.6783C78.7494 18.4041 79.0317 18.1219 79.2575 17.8315C79.4349 17.6864 79.6123 17.6138 79.7897 17.6138C79.951 17.6138 80.0881 17.6783 80.201 17.8073C80.33 17.9364 80.3946 18.0815 80.3946 18.2428C80.3946 18.4364 80.3139 18.6057 80.1526 18.7509C79.6688 19.3315 79.0397 19.8396 78.2655 20.2751C77.4913 20.6944 76.6446 20.9041 75.7252 20.9041Z" fill="#9A9A9A"/>
<path d="M92.9158 8.08157C93.1255 8.08157 93.2948 8.15415 93.4239 8.29931C93.569 8.44447 93.6416 8.61383 93.6416 8.80737V19.4767C93.6416 20.7831 93.3836 21.8799 92.8674 22.767C92.3513 23.6702 91.6578 24.3476 90.7868 24.7993C89.9158 25.267 88.9239 25.5009 87.811 25.5009C87.1174 25.5009 86.4723 25.4202 85.8755 25.2589C85.2949 25.1138 84.8191 24.9202 84.4481 24.6783C84.2546 24.5654 84.1094 24.4283 84.0126 24.267C83.9158 24.1057 83.9078 23.9364 83.9884 23.7589C84.0691 23.5331 84.19 23.3799 84.3513 23.2993C84.5287 23.2347 84.7062 23.2428 84.8836 23.3235C85.1578 23.4686 85.5529 23.646 86.0691 23.8557C86.5852 24.0654 87.1739 24.1702 87.8352 24.1702C88.7223 24.1702 89.4884 23.9847 90.1336 23.6138C90.7948 23.2428 91.3029 22.7025 91.6578 21.9928C92.0126 21.2993 92.19 20.4686 92.19 19.5009V17.759L92.3594 18.3396C92.1174 18.8396 91.7707 19.2831 91.319 19.6702C90.8836 20.0573 90.3755 20.3638 89.7949 20.5896C89.2303 20.7993 88.6255 20.9041 87.9803 20.9041C87.0126 20.9041 86.2062 20.7106 85.561 20.3235C84.932 19.9202 84.4642 19.3719 84.1578 18.6783C83.8513 17.9848 83.6981 17.1702 83.6981 16.2348V8.80737C83.6981 8.61383 83.7626 8.44447 83.8917 8.29931C84.0207 8.15415 84.1981 8.08157 84.4239 8.08157C84.6336 8.08157 84.8029 8.15415 84.932 8.29931C85.0771 8.44447 85.1497 8.61383 85.1497 8.80737V16.017C85.1497 17.1461 85.3916 18.017 85.8755 18.6299C86.3755 19.2428 87.182 19.5493 88.2949 19.5493C88.9884 19.5493 89.6255 19.388 90.2061 19.0654C90.7868 18.7267 91.2626 18.2912 91.6336 17.759C92.0045 17.2106 92.19 16.6299 92.19 16.017V8.80737C92.19 8.61383 92.2545 8.44447 92.3836 8.29931C92.5287 8.15415 92.7061 8.08157 92.9158 8.08157Z" fill="#9A9A9A"/>
<path d="M103.328 8.00899C104.424 8.00899 105.392 8.28318 106.231 8.83157C107.086 9.37995 107.763 10.138 108.263 11.1058C108.763 12.0574 109.013 13.1622 109.013 14.4203C109.013 15.6461 108.763 16.7509 108.263 17.7348C107.763 18.7186 107.086 19.4928 106.231 20.0573C105.376 20.6218 104.416 20.9041 103.352 20.9041C102.787 20.9041 102.247 20.8154 101.731 20.638C101.231 20.4606 100.771 20.2267 100.352 19.9364C99.9325 19.6299 99.5616 19.2751 99.239 18.8719C98.9164 18.4686 98.6584 18.0331 98.4648 17.5654L98.9003 17.2509V19.9848C98.9003 20.1944 98.8277 20.3718 98.6825 20.517C98.5535 20.646 98.3842 20.7106 98.1745 20.7106C97.9648 20.7106 97.7874 20.646 97.6422 20.517C97.5132 20.3718 97.4487 20.1944 97.4487 19.9848V3.50901C97.4487 3.29933 97.5132 3.12998 97.6422 3.00094C97.7713 2.85578 97.9487 2.7832 98.1745 2.7832C98.3842 2.7832 98.5535 2.85578 98.6825 3.00094C98.8277 3.12998 98.9003 3.29933 98.9003 3.50901V11.6138L98.5616 11.4203C98.7229 10.9203 98.9567 10.4687 99.2632 10.0654C99.5858 9.64608 99.9567 9.28318 100.376 8.97673C100.795 8.67028 101.255 8.43641 101.755 8.27512C102.255 8.0977 102.779 8.00899 103.328 8.00899ZM103.207 9.36382C102.336 9.36382 101.57 9.58157 100.908 10.017C100.247 10.4525 99.7229 11.0493 99.3358 11.8074C98.9648 12.5654 98.7793 13.4364 98.7793 14.4203C98.7793 15.388 98.9648 16.267 99.3358 17.0573C99.7229 17.8315 100.247 18.4444 100.908 18.896C101.57 19.3315 102.336 19.5493 103.207 19.5493C104.062 19.5493 104.812 19.3235 105.457 18.8719C106.118 18.4202 106.642 17.8073 107.029 17.0332C107.416 16.2428 107.61 15.3719 107.61 14.4203C107.61 13.4364 107.416 12.5654 107.029 11.8074C106.642 11.0493 106.118 10.4525 105.457 10.017C104.812 9.58157 104.062 9.36382 103.207 9.36382Z" fill="#9A9A9A"/>
<path d="M122.258 8.29931C122.467 8.29931 122.637 8.37189 122.766 8.51705C122.911 8.66221 122.984 8.83963 122.984 9.04931V19.9364C122.984 20.1299 122.911 20.2993 122.766 20.4444C122.621 20.5896 122.451 20.6622 122.258 20.6622C122.048 20.6622 121.871 20.5896 121.725 20.4444C121.596 20.2993 121.532 20.1299 121.532 19.9364V17.0573L121.943 16.8638C121.943 17.3154 121.814 17.7751 121.556 18.2428C121.314 18.7106 120.975 19.146 120.54 19.5493C120.105 19.9525 119.588 20.2831 118.992 20.5412C118.411 20.7831 117.782 20.9041 117.105 20.9041C116.008 20.9041 115.024 20.6218 114.153 20.0573C113.298 19.4928 112.621 18.7186 112.121 17.7348C111.637 16.7509 111.395 15.6461 111.395 14.4203C111.395 13.1622 111.645 12.0574 112.145 11.1058C112.645 10.138 113.322 9.37995 114.177 8.83157C115.032 8.28318 116 8.00899 117.08 8.00899C117.774 8.00899 118.419 8.12996 119.016 8.37189C119.629 8.61383 120.161 8.94447 120.613 9.36382C121.064 9.78318 121.411 10.267 121.653 10.8154C121.911 11.3477 122.04 11.9041 122.04 12.4848L121.532 12.1219V9.04931C121.532 8.83963 121.596 8.66221 121.725 8.51705C121.871 8.37189 122.048 8.29931 122.258 8.29931ZM117.226 19.5493C118.08 19.5493 118.838 19.3315 119.5 18.896C120.161 18.4444 120.677 17.8315 121.048 17.0573C121.435 16.267 121.629 15.388 121.629 14.4203C121.629 13.4686 121.435 12.6138 121.048 11.8558C120.677 11.0977 120.161 10.4929 119.5 10.0412C118.838 9.58963 118.08 9.36382 117.226 9.36382C116.387 9.36382 115.629 9.58157 114.951 10.017C114.29 10.4525 113.766 11.0493 113.379 11.8074C113.008 12.5654 112.822 13.4364 112.822 14.4203C112.822 15.388 113.008 16.267 113.379 17.0573C113.766 17.8315 114.29 18.4444 114.951 18.896C115.613 19.3315 116.371 19.5493 117.226 19.5493Z" fill="#9A9A9A"/>
<path d="M126.091 18.7025C125.962 18.509 125.898 18.3235 125.898 18.146C125.914 17.9525 126.019 17.7993 126.212 17.6864C126.341 17.5735 126.486 17.5251 126.648 17.5412C126.825 17.5573 126.986 17.638 127.131 17.7831C127.567 18.3477 128.091 18.8073 128.704 19.1622C129.333 19.5009 130.075 19.6702 130.93 19.6702C131.381 19.6702 131.825 19.5977 132.26 19.4525C132.712 19.2912 133.083 19.0573 133.373 18.7509C133.664 18.4283 133.809 18.0251 133.809 17.5412C133.809 17.0412 133.664 16.638 133.373 16.3315C133.083 16.0251 132.704 15.7832 132.236 15.6057C131.785 15.4283 131.301 15.2751 130.785 15.1461C130.236 15.0009 129.704 14.8396 129.188 14.6622C128.672 14.4686 128.212 14.2348 127.809 13.9606C127.422 13.6703 127.107 13.3235 126.865 12.9203C126.623 12.517 126.502 12.0251 126.502 11.4445C126.502 10.767 126.688 10.1703 127.059 9.65415C127.43 9.13802 127.93 8.73479 128.559 8.44447C129.204 8.15415 129.93 8.00899 130.736 8.00899C131.139 8.00899 131.575 8.06544 132.043 8.17834C132.51 8.27512 132.97 8.44447 133.422 8.68641C133.873 8.92834 134.277 9.25899 134.631 9.67834C134.777 9.8235 134.849 9.99285 134.849 10.1864C134.849 10.3638 134.768 10.5251 134.607 10.6703C134.478 10.767 134.325 10.8154 134.148 10.8154C133.986 10.8154 133.849 10.7509 133.736 10.6219C133.349 10.1864 132.889 9.85576 132.357 9.62995C131.825 9.40415 131.252 9.29124 130.639 9.29124C130.172 9.29124 129.728 9.37189 129.309 9.53318C128.906 9.67834 128.567 9.90414 128.293 10.2106C128.019 10.517 127.881 10.9203 127.881 11.4203C127.914 11.888 128.075 12.267 128.365 12.5574C128.672 12.8477 129.067 13.0896 129.551 13.2832C130.051 13.4767 130.607 13.6541 131.22 13.8154C131.736 13.9445 132.228 14.0977 132.696 14.2751C133.18 14.4525 133.599 14.6783 133.954 14.9525C134.325 15.2106 134.615 15.5412 134.825 15.9444C135.051 16.3477 135.164 16.8557 135.164 17.4686C135.164 18.1783 134.962 18.7912 134.559 19.3073C134.172 19.8235 133.648 20.2186 132.986 20.4928C132.325 20.767 131.591 20.9041 130.785 20.9041C129.914 20.9041 129.067 20.7347 128.244 20.396C127.438 20.0573 126.72 19.4928 126.091 18.7025Z" fill="#9A9A9A"/>
<path d="M143.722 20.9041C142.48 20.9041 141.383 20.638 140.432 20.1057C139.48 19.5735 138.738 18.8315 138.206 17.8799C137.674 16.9283 137.408 15.8154 137.408 14.5412C137.408 13.1703 137.674 12.0009 138.206 11.0332C138.754 10.0654 139.456 9.3235 140.311 8.80737C141.182 8.27512 142.101 8.00899 143.069 8.00899C143.779 8.00899 144.464 8.13802 145.125 8.39609C145.803 8.63802 146.399 9.00899 146.916 9.50898C147.448 9.99285 147.867 10.5896 148.174 11.2993C148.496 12.009 148.674 12.8316 148.706 13.767C148.69 13.9606 148.609 14.1299 148.464 14.2751C148.319 14.4041 148.149 14.4686 147.956 14.4686H138.254L137.964 13.1622H147.496L147.182 13.4525V12.9686C147.117 12.2106 146.875 11.5654 146.456 11.0332C146.037 10.5009 145.529 10.0977 144.932 9.8235C144.335 9.54931 143.714 9.41221 143.069 9.41221C142.585 9.41221 142.085 9.50898 141.569 9.70253C141.069 9.89608 140.609 10.2025 140.19 10.6219C139.787 11.0251 139.456 11.5493 139.198 12.1945C138.94 12.8235 138.811 13.5735 138.811 14.4445C138.811 15.3961 139.004 16.259 139.391 17.0332C139.779 17.8073 140.335 18.4202 141.061 18.8719C141.803 19.3235 142.682 19.5493 143.698 19.5493C144.262 19.5493 144.77 19.4686 145.222 19.3073C145.674 19.146 146.069 18.9364 146.408 18.6783C146.746 18.4041 147.029 18.1219 147.254 17.8315C147.432 17.6864 147.609 17.6138 147.787 17.6138C147.948 17.6138 148.085 17.6783 148.198 17.8073C148.327 17.9364 148.391 18.0815 148.391 18.2428C148.391 18.4364 148.311 18.6057 148.149 18.7509C147.666 19.3315 147.037 19.8396 146.262 20.2751C145.488 20.6944 144.641 20.9041 143.722 20.9041Z" fill="#9A9A9A"/>
</svg>
