<svg width="65" height="65" viewBox="0 0 65 65" fill="none" xmlns="http://www.w3.org/2000/svg">
<path d="M61.0828 42.0763C57.7931 43.8142 40.6 50.828 37 52.7522C33.4 54.6763 31.3518 54.6142 28.4345 53.2487C25.5173 51.8832 7.269 44.497 3.97934 42.9453C2.30348 42.1384 1.49658 41.5177 1.49658 40.897V34.5659C1.49658 34.5659 25.269 29.4142 29.1173 27.9866C32.9655 26.559 34.269 26.559 37.5587 27.7384C40.8483 28.9177 60.338 32.4556 63.5655 33.6349V39.8418C63.5655 39.9039 62.7586 41.2073 61.0828 42.0763Z" fill="#A22322"/>
<path d="M61.0829 35.8073C57.7932 37.5453 40.6001 44.5591 37.0001 46.4832C33.4001 48.4073 31.3519 48.3453 28.4346 46.9798C25.5174 45.6142 7.26909 38.228 3.97943 36.6763C0.689779 35.1246 0.627709 34.0073 3.8553 32.766C7.08288 31.5246 25.2691 24.3867 29.0553 23.0211C32.8415 21.6556 34.2691 21.5315 37.4967 22.7729C40.7243 24.0142 57.7932 30.7177 61.0208 31.897C64.2484 33.0763 64.4346 34.0694 61.0829 35.8073Z" fill="#DB382C"/>
<path d="M61.0828 31.835C57.7931 33.5729 40.6 40.6488 37 42.5109C33.4 44.3729 31.3518 44.3729 28.4345 43.0074C25.5173 41.6419 7.269 34.2557 3.97934 32.704C2.30348 31.8971 1.49658 31.2764 1.49658 30.6557V24.3867C1.49658 24.3867 25.269 19.235 29.0552 17.8695C32.8414 16.504 34.2069 16.4419 37.4966 17.6212C40.7862 18.8005 60.2759 22.3384 63.5035 23.5178V29.7246C63.5655 29.6626 62.7586 30.966 61.0828 31.835Z" fill="#A22322"/>
<path d="M61.0829 25.566C57.7932 27.3039 40.6001 34.3177 37.0001 36.2419C33.4001 38.166 31.3519 38.1039 28.4346 36.7384C25.5174 35.3729 7.26909 27.9867 3.97943 26.435C0.689779 24.8833 0.627709 23.766 3.8553 22.5246C7.08288 21.2833 25.2691 14.0833 29.0553 12.7177C32.8415 11.3522 34.207 11.2902 37.4967 12.4695C40.7863 13.6488 57.7932 20.4764 61.0208 21.6557C64.2484 22.835 64.4346 23.8281 61.0829 25.566Z" fill="#DB382C"/>
<path d="M61.0828 21.2212C57.7931 22.9591 40.6 29.9729 37 31.897C33.4 33.8212 31.3518 33.7591 28.4345 32.3936C25.5173 31.0281 7.269 23.6419 3.97934 22.0902C2.30348 21.2833 1.49658 20.6626 1.49658 19.9798V13.7108C1.49658 13.7108 25.269 8.55912 29.0552 7.13153C32.8414 5.70395 34.2069 5.70395 37.4966 6.88326C40.7862 8.06257 60.2759 11.6005 63.5035 12.7798V18.9867C63.5655 19.0488 62.7586 20.3522 61.0828 21.2212Z" fill="#A22322"/>
<path d="M61.0829 14.9522C57.7932 16.6902 40.6001 23.7039 37.0001 25.6281C33.4001 27.5522 31.3519 27.4902 28.4346 26.1246C25.5174 24.7591 7.26909 17.3729 3.97943 15.8212C0.689779 14.2695 0.627709 13.1522 3.8553 11.9108C7.08288 10.6695 25.2691 3.53153 29.0553 2.10394C32.8415 0.676358 34.207 0.676358 37.4967 1.85567C40.7863 3.03498 57.7932 9.86257 61.0208 11.0419C64.2484 12.2212 64.4346 13.2143 61.0829 14.9522Z" fill="#DB382C"/>
<path d="M33.4621 6.01424L37.5586 4.64872L36.4414 7.31769L40.6 8.86941L35.2 9.42803L33.9586 12.3453L32.0965 9.11769L25.8896 8.55907L30.5448 6.88321L29.1793 4.33838L33.4621 6.01424Z" fill="white"/>
<path d="M33.7104 22.9591L23.6553 18.8005L38.0553 16.6281L33.7104 22.9591Z" fill="white"/>
<path d="M19.8069 16.5039C24.0576 16.5039 27.5035 15.17 27.5035 13.5246C27.5035 11.8792 24.0576 10.5453 19.8069 10.5453C15.5562 10.5453 12.1104 11.8792 12.1104 13.5246C12.1104 15.17 15.5562 16.5039 19.8069 16.5039Z" fill="white"/>
<path d="M46.9932 9.67639L55.4966 13.0281L46.9932 16.3798V9.67639Z" fill="#741113"/>
<path d="M46.9931 9.67639V16.3798L46.062 16.7523L37.5586 13.4005L46.9931 9.67639Z" fill="#AB2724"/>
<path d="M1.49658 47.6005H63.5655V64.5453H1.49658V47.6005Z" fill="#364253"/>
<path d="M64 64.9797H1V47.1039H64V64.9797ZM1.93103 64.0487H63.069V48.0349H1.93103V64.0487Z" fill="white"/>
<path d="M8.07593 52.9385H11.9863V53.8695H9.25524V55.5454H11.4277V56.4143H9.25524V58.2143H12.1104V59.1454H8.07593V52.9385Z" fill="white"/>
<path d="M12.9795 52.9384H14.345L16.9519 57.4073V52.9384H18.0071V59.1453H16.8278L14.0347 54.3659V59.1453H12.9795V52.9384Z" fill="white"/>
<path d="M20.5519 53.8694H18.814V52.9384H23.4691V53.8694H21.7312V59.1453H20.5519V53.8694Z" fill="white"/>
<path d="M24.1519 52.9384H28.0622V53.8694H25.3312V55.5453H27.5036V56.4142H25.3312V58.2142H28.1863V59.1453H24.1519V52.9384Z" fill="white"/>
<path d="M29.0552 52.9384H31.1655C32.531 52.9384 33.4621 53.497 33.4621 54.7384V54.8004C33.4621 55.7935 32.8414 56.2901 32.0966 56.4763L33.8345 59.1453H32.5931L30.9793 56.6625H30.2345V59.1453H29.0552V52.9384ZM31.1655 55.7935C31.9103 55.7935 32.3448 55.4832 32.3448 54.8004V54.7384C32.3448 54.0556 31.9103 53.8073 31.1655 53.8073H30.2345V55.7935H31.1655Z" fill="white"/>
<path d="M34.5793 52.9384H36.5656C37.9311 52.9384 38.8621 53.559 38.8621 54.8625V54.9246C38.8621 56.228 37.9311 56.8487 36.5656 56.8487H35.7587V59.2073H34.5793V52.9384ZM36.5656 55.9797C37.3104 55.9797 37.7449 55.6073 37.7449 54.9246V54.8625C37.7449 54.1177 37.3104 53.8073 36.5656 53.8073H35.7587V55.9177H36.5656V55.9797Z" fill="white"/>
<path d="M39.7312 52.9384H41.8415C43.2071 52.9384 44.1381 53.497 44.1381 54.7384V54.8004C44.1381 55.7935 43.5174 56.2901 42.7726 56.4763L44.5105 59.1453H43.2691L41.6553 56.6625H40.9105V59.1453H39.7312V52.9384ZM41.7795 55.7935C42.5243 55.7935 42.9588 55.4832 42.9588 54.8004V54.7384C42.9588 54.0556 42.5243 53.8073 41.7795 53.8073H40.8484V55.7935H41.7795Z" fill="white"/>
<path d="M45.2551 52.9384H46.4344V59.1453H45.2551V52.9384Z" fill="white"/>
<path d="M47.3655 57.2212H48.4827C48.5448 57.8419 48.7931 58.3384 49.8482 58.3384C50.531 58.3384 51.0275 57.966 51.0275 57.4074C51.0275 56.8488 50.7172 56.6005 49.7241 56.4763C48.2344 56.2901 47.5517 55.8557 47.5517 54.6763C47.5517 53.6832 48.4207 52.8763 49.7241 52.8763C51.0896 52.8763 51.8344 53.497 51.9586 54.6763H50.9034C50.7793 53.9936 50.4069 53.7453 49.7241 53.7453C49.0413 53.7453 48.6689 54.0557 48.6689 54.5522C48.6689 55.0488 48.8551 55.297 49.9724 55.4832C51.462 55.6694 52.2069 56.1039 52.2069 57.3453C52.2069 58.4005 51.2758 59.2694 49.9103 59.2694C48.1103 59.2694 47.4275 58.4005 47.3655 57.2212Z" fill="white"/>
<path d="M53.0759 52.9384H56.9863V53.8694H54.2552V55.5453H56.4277V56.4142H54.2552V58.2142H57.1104V59.1453H53.0759V52.9384Z" fill="white"/>
</svg>
