<svg width="66" height="65" viewBox="0 0 66 65" fill="none" xmlns="http://www.w3.org/2000/svg">
<g clip-path="url(#clip0_11_811)">
<path d="M38.1309 32.7666C37.8593 32.7654 37.5962 32.6713 37.3853 32.5001C37.1744 32.3289 37.0284 32.0907 36.9714 31.8251C36.9144 31.5595 36.9498 31.2824 37.0718 31.0397C37.1939 30.797 37.3952 30.6033 37.6424 30.4907L61.6942 19.5938L37.6603 9.26289C37.3848 9.12875 37.1715 8.89363 37.0649 8.60638C36.9582 8.31913 36.9663 8.00183 37.0874 7.72039C37.2086 7.43895 37.4335 7.215 37.7155 7.09507C37.9975 6.97513 38.3148 6.96843 38.6016 7.07636L65.114 18.4678C65.3255 18.561 65.5053 18.7137 65.6315 18.9073C65.7577 19.1009 65.8249 19.327 65.8249 19.5581C65.8249 19.7891 65.7577 20.0152 65.6315 20.2088C65.5053 20.4024 65.3255 20.5551 65.114 20.6483L38.6254 32.6594C38.4709 32.7322 38.3018 32.7688 38.1309 32.7666Z" fill="#DB2E2E"/>
<path d="M29.1939 32.7663C29.0322 32.7668 28.8721 32.7344 28.7233 32.671L2.21083 21.2796C1.99938 21.1864 1.81961 21.0337 1.6934 20.8401C1.5672 20.6465 1.5 20.4204 1.5 20.1893C1.5 19.9582 1.5672 19.7321 1.6934 19.5386C1.81961 19.345 1.99938 19.1923 2.21083 19.099L28.7233 7.08801C29.0079 6.98085 29.3227 6.98658 29.6033 7.10404C29.8838 7.2215 30.1088 7.44179 30.2322 7.71978C30.3556 7.99777 30.368 8.31242 30.2669 8.59926C30.1658 8.88611 29.9589 9.12344 29.6884 9.26263L5.62467 20.1536L29.6646 30.4845C29.914 30.5944 30.1181 30.7865 30.243 31.0287C30.3679 31.2709 30.406 31.5486 30.351 31.8155C30.2959 32.0824 30.151 32.3224 29.9405 32.4954C29.7299 32.6684 29.4664 32.7641 29.1939 32.7663Z" fill="#DB2E2E"/>
<path fill-rule="evenodd" clip-rule="evenodd" d="M50.6479 36.377C55.9206 34.2263 61.104 32.1172 62.7602 31.2175L64.0471 30.5145C64.5096 30.2734 64.9573 30.0048 65.3877 29.7102C65.4891 30.3956 65.4891 31.0922 65.3877 31.7776C65.203 32.4985 64.6727 33.0943 62.653 34.0654C61.2589 34.7386 57.3684 36.3353 53.0311 38.1227C46.9362 40.6309 39.9238 43.4848 37.7254 44.6763C33.954 46.4637 31.8807 46.4637 28.9911 45.1589C27.597 44.4142 22.5507 42.2396 17.3316 39.9637C11.7372 37.5269 5.94618 35.0008 4.22436 34.1071C1.87696 32.8798 1.75781 32.6057 1.76972 31.9861V30.3656L2.36551 30.6873C4.57587 31.8074 14.5314 36.0494 21.7226 39.1474C25.2854 40.6607 28.1451 41.894 29.0984 42.323C31.9879 43.6218 34.0374 43.8601 37.8326 41.8404C39.757 40.8395 45.2501 38.5814 50.6479 36.377Z" fill="#494C4D"/>
<path fill-rule="evenodd" clip-rule="evenodd" d="M50.6479 48.2928C55.9206 46.142 61.104 44.0329 62.7602 43.1333L64.0471 42.4303C64.5096 42.1892 64.9573 41.9206 65.3877 41.626C65.4891 42.3114 65.4891 43.008 65.3877 43.6934C65.203 44.4143 64.6727 45.01 62.653 45.9812C61.2589 46.6544 57.3684 48.2511 53.0311 50.0385C46.9362 52.5467 39.9238 55.4005 37.7254 56.5921C33.954 58.3795 31.8807 58.3795 28.9911 57.0747C27.597 56.3419 22.5507 54.1434 17.3316 51.8675C11.7372 49.4308 5.94618 46.9046 4.22436 46.011C1.87696 44.7836 1.75781 44.5096 1.76972 43.89V42.2813L2.36551 42.6031C4.57587 43.7231 14.5314 47.9651 21.7226 51.0632C25.2615 52.5765 28.1273 53.8098 29.0805 54.2387C31.9701 55.5376 34.0196 55.7759 37.8147 53.7562C39.757 52.7552 45.2501 50.4972 50.6479 48.2928Z" fill="#494C4D"/>
</g>
<defs>
<clipPath id="clip0_11_811">
<rect width="65" height="65" fill="white" transform="translate(0.5)"/>
</clipPath>
</defs>
</svg>
